<?xml version="1.0"?>
<svg width="357" height="97" xmlns="http://www.w3.org/2000/svg" xmlns:svg="http://www.w3.org/2000/svg" version="1.1" xml:space="preserve">

 <g class="layer">
  <g id="svg_29">
   <g id="svg_3" transform="matrix(1 0 0 1 434.26 523.65)">
    <polygon fill="rgb(255,255,255)" fill-rule="nonzero" id="svg_4" points="-354.6600036621094,-491.1989440917969 -359,-498.71893310546875 -367.6999816894531,-498.71893310546875 -367.6999816894531,-483.678955078125 -359,-483.678955078125 -354.6600036621094,-491.1989440917969 " stroke-dashoffset="0" stroke-miterlimit="4"/>
   </g>
   <g id="svg_5" transform="matrix(1 0 0 1 406.89 538.13)">
    <polygon fill="rgb(255,255,255)" fill-rule="nonzero" id="svg_6" points="-369.0199890136719,-513.2089233398438 -387.2599792480469,-469.1989440917969 -371.57000732421875,-469.1989440917969 -361.17999267578125,-494.2689514160156 -350.79998779296875,-469.1989440917969 -335.1099853515625,-469.1989440917969 -353.3399963378906,-513.2089233398438 -369.0199890136719,-513.2089233398438 " stroke-dashoffset="0" stroke-miterlimit="4"/>
   </g>
   <g id="svg_7" transform="matrix(1 0 0 1 406.88 540)">
    <path d="m-181.99,-470.48l-44.7,-15.94l-44.7,15.94l6.82,59.11l37.88,21l37.89,-21l6.81,-59.11zm-34.31,52.22l-10.39,-25.07l-10.38,25.07l-15.69,0l18.23,-44l15.69,0l18.23,44l-15.69,0zm19.17,-29l-8.7,0l0,-15l8.7,0l4.34,7.52l-4.34,7.48z" fill="rgb(221,30,52)" fill-rule="nonzero" id="svg_8" stroke-dashoffset="0" stroke-miterlimit="4" transform="translate(-134.49 -52.8)"/>
   </g>
   <g id="svg_9" transform="matrix(1 0 0 1 475.37 539.71)">
    <path d="m-337.29,-362.29c-1.56,-1.95 -3.95,-3.06 -6.45,-3c-5.68,0 -10.17,4.44 -10.17,12.08c0,7.93 4.58,12.14 10.17,12.14c2.51,0.03 4.89,-1.07 6.5,-3l0,2.43l8.6,0l0,-23.09l-8.65,0l0,2.44zm0.05,12c-0.93,0.99 -2.22,1.56 -3.58,1.58c-1.19,0.02 -2.33,-0.46 -3.15,-1.32c-0.82,-0.86 -1.24,-2.03 -1.15,-3.22c-0.08,-1.18 0.34,-2.33 1.16,-3.18c0.82,-0.85 1.96,-1.31 3.14,-1.26c1.35,0.01 2.64,0.56 3.58,1.53l0,5.87z" fill="rgb(221,30,52)" fill-rule="nonzero" id="svg_10" stroke-dashoffset="0" stroke-miterlimit="4" transform="translate(-19.91 -138.02)"/>
   </g>
   <g id="svg_11" transform="matrix(1 0 0 1 505.37 539.41)">
    <path d="m-306.85,-365.3c-2.99,-0.15 -5.89,1.02 -7.93,3.2l0,-2.63l-8.6,0l0,23.07l8.6,0l0,-14.23c0.86,-1.16 2.23,-1.83 3.67,-1.82c2.06,0 3.35,0.91 3.35,3.3l0,12.75l8.58,0l0,-16.38c0,-4.02 -2.32,-7.26 -7.67,-7.26z" fill="rgb(221,30,52)" fill-rule="nonzero" id="svg_12" stroke-dashoffset="0" stroke-miterlimit="4" transform="translate(-49.9 -137.71)"/>
   </g>
   <g id="svg_13" transform="matrix(1 0 0 1 533.82 544.11)">
    <path d="m-278.86,-362.29c-1.58,-1.95 -3.98,-3.06 -6.49,-3c-5.69,0 -10.13,3.82 -10.13,11.51c0,7.88 4.58,11.51 10.13,11.51c2.52,0.02 4.92,-1.12 6.49,-3.1l0,1.24c0,4.06 -3.34,4.82 -5.35,4.82c-2.54,0.08 -5,-0.82 -6.88,-2.53l-3.63,6.12c3.01,2.33 6.73,3.55 10.54,3.43c5.73,0 14,-1.87 14,-11.85l0,-20.59l-8.6,0l-0.08,2.44zm0,10.94c-0.94,0.93 -2.21,1.46 -3.53,1.48c-2.34,0 -4.3,-1.1 -4.3,-3.92c0,-2.82 2,-3.92 4.3,-3.92c1.33,0.03 2.59,0.57 3.53,1.51l0,4.85z" fill="rgb(221,30,52)" fill-rule="nonzero" id="svg_14" stroke-dashoffset="0" stroke-miterlimit="4" transform="translate(-78.35 -142.41)"/>
   </g>
   <g id="svg_15" transform="matrix(1 0 0 1 563.73 540.03)">
    <path d="m-249.43,-350.49c-0.86,1.14 -2.2,1.81 -3.63,1.81c-2.1,0 -3.34,-0.91 -3.34,-3.25l0,-12.8l-8.6,0l0,16.53c0,4 2.29,7.17 7.64,7.17c2.97,0.14 5.86,-1.02 7.93,-3.16l0,2.58l8.6,0l0,-23.12l-8.6,0l0,14.24z" fill="rgb(221,30,52)" fill-rule="nonzero" id="svg_16" stroke-dashoffset="0" stroke-miterlimit="4" transform="translate(-108.27 -138.33)"/>
   </g>
   <g id="svg_17" transform="matrix(1 0 0 1 585.38 535.31)">
    <rect fill="rgb(221,30,52)" fill-rule="nonzero" height="31.86" id="svg_18" stroke-dashoffset="0" stroke-miterlimit="4" width="8.6" x="-365.48" y="-507.13"/>
   </g>
   <g id="svg_19" transform="matrix(1 0 0 1 605.99 539.71)">
    <path d="m-206.67,-362.29c-1.56,-1.95 -3.95,-3.06 -6.45,-3c-5.68,0 -10.17,4.44 -10.17,12.08c0,7.93 4.58,12.14 10.17,12.14c2.51,0.03 4.89,-1.07 6.5,-3l0,2.43l8.6,0l0,-23.09l-8.65,0l0,2.44zm0.05,12c-0.93,0.99 -2.23,1.56 -3.59,1.58c-1.19,0.02 -2.33,-0.46 -3.15,-1.32c-0.82,-0.87 -1.23,-2.03 -1.14,-3.22c-0.09,-1.18 0.33,-2.33 1.15,-3.18c0.82,-0.85 1.96,-1.31 3.14,-1.26c1.35,0 2.65,0.55 3.59,1.53l0,5.87z" fill="rgb(221,30,52)" fill-rule="nonzero" id="svg_20" stroke-dashoffset="0" stroke-miterlimit="4" transform="translate(-150.53 -138.02)"/>
   </g>
   <g id="svg_21" transform="matrix(1 0 0 1 631.72 539.37)">
    <path d="m-184.18,-362.2l0,-2.53l-8.6,0l0,23.07l8.6,0l0,-14.14c1,-1.14 3.3,-1.62 5.11,-1.62c0.68,-0.02 1.35,0.06 2,0.24l0,-8.22c-2.7,0.1 -5.25,1.25 -7.11,3.2z" fill="rgb(221,30,52)" fill-rule="nonzero" id="svg_22" stroke-dashoffset="0" stroke-miterlimit="4" transform="translate(-176.25 -137.67)"/>
   </g>
   <g id="svg_23" transform="matrix(1 0 0 1 653.66 535.62)">
    <path d="m-155.74,-361.2c-1.79,-2.53 -4.69,-4.04 -7.79,-4.06c-6,0 -10.27,4.73 -10.27,12.13c0,7.4 4.25,12.09 10.27,12.09c3.08,-0.02 5.97,-1.51 7.79,-4l0,3.44l3.56,0l0,-31.92l-3.58,0l0.02,12.32zm0,13.28c-1.57,2.26 -4.13,3.63 -6.88,3.68c-4.68,0 -7.45,-3.78 -7.45,-8.89c0,-5.11 2.77,-8.93 7.45,-8.93c2.76,0.06 5.32,1.45 6.88,3.72l0,10.42z" fill="rgb(221,30,52)" fill-rule="nonzero" id="svg_24" stroke-dashoffset="0" stroke-miterlimit="4" transform="translate(-198.19 -133.92)"/>
   </g>
   <g id="svg_25" transform="matrix(1 0 0 1 680.65 539.75)">
    <path d="m-128.75,-361.2c-1.79,-2.53 -4.69,-4.04 -7.79,-4.06c-6,0 -10.27,4.73 -10.27,12.13c0,7.4 4.26,12.09 10.27,12.09c3.08,-0.02 5.97,-1.51 7.79,-4l0,3.44l3.57,0l0,-23.13l-3.58,0l0.01,3.53zm0,13.28c-1.57,2.26 -4.13,3.63 -6.88,3.68c-4.68,0 -7.45,-3.78 -7.45,-8.89c0,-5.11 2.77,-8.93 7.45,-8.93c2.76,0.06 5.32,1.45 6.88,3.72l0,10.42z" fill="rgb(221,30,52)" fill-rule="nonzero" id="svg_26" stroke-dashoffset="0" stroke-miterlimit="4" transform="translate(-225.19 -138.05)"/>
   </g>
   <g id="svg_27" transform="matrix(1 0 0 1 706.28 544.4)">
    <path d="m-102.66,-364.73l-7.69,18.92l-7.65,-18.92l-3.91,0l9.64,23.31l-1.52,3.49c-0.82,1.91 -1.87,2.44 -3.44,2.44c-0.69,0 -1.36,-0.13 -2,-0.39l-0.53,3.25c0.84,0.22 1.71,0.33 2.58,0.34c3.05,0.12 5.82,-1.79 6.79,-4.69l11.56,-27.75l-3.83,0z" fill="rgb(221,30,52)" fill-rule="nonzero" id="svg_28" stroke-dashoffset="0" stroke-miterlimit="4" transform="translate(-250.81 -142.69)"/>
   </g>
  </g>
 </g>
</svg>